<?xml version="1.0" encoding="UTF-8" standalone="no"?>
<!-- Created with Inkscape (http://www.inkscape.org/) -->

<svg
   width="47.625mm"
   height="47.624969mm"
   viewBox="0 0 47.625 47.624969"
   version="1.1"
   id="svg1"
   xml:space="preserve"
   inkscape:version="1.4.3 (0d15f75, 2025-12-25)"
   sodipodi:docname="RutasMEX.svg"
   inkscape:export-filename="RutasMEXTinted.png"
   inkscape:export-xdpi="96"
   inkscape:export-ydpi="96"
   xmlns:inkscape="http://www.inkscape.org/namespaces/inkscape"
   xmlns:sodipodi="http://sodipodi.sourceforge.net/DTD/sodipodi-0.dtd"
   xmlns:xlink="http://www.w3.org/1999/xlink"
   xmlns="http://www.w3.org/2000/svg"
   xmlns:svg="http://www.w3.org/2000/svg"><sodipodi:namedview
     id="namedview1"
     pagecolor="#ffffff"
     bordercolor="#000000"
     borderopacity="0.25"
     inkscape:showpageshadow="2"
     inkscape:pageopacity="0.0"
     inkscape:pagecheckerboard="0"
     inkscape:deskcolor="#d1d1d1"
     inkscape:document-units="mm"
     showguides="false"
     inkscape:zoom="1.9234005"
     inkscape:cx="4828.1677"
     inkscape:cy="507.95454"
     inkscape:window-width="1512"
     inkscape:window-height="921"
     inkscape:window-x="0"
     inkscape:window-y="33"
     inkscape:window-maximized="0"
     inkscape:current-layer="layer1"><inkscape:page
       x="0"
       y="0"
       width="47.625"
       height="47.624969"
       id="page2"
       margin="0"
       bleed="0" /></sodipodi:namedview><defs
     id="defs1"><linearGradient
       id="swatch52"
       inkscape:swatch="solid"><stop
         style="stop-color:#ffffff;stop-opacity:1;"
         offset="0"
         id="stop52" /></linearGradient><linearGradient
       id="linearGradient83"
       inkscape:collect="always"><stop
         style="stop-color:#6cabdb;stop-opacity:1;"
         offset="0"
         id="stop83" /><stop
         style="stop-color:#193568;stop-opacity:1;"
         offset="1"
         id="stop84" /></linearGradient><linearGradient
       inkscape:collect="always"
       xlink:href="#linearGradient83"
       id="linearGradient84-9-0-1"
       x1="1257.0063"
       y1="-1092.9727"
       x2="1507.8496"
       y2="-1092.9727"
       gradientUnits="userSpaceOnUse" /></defs><g
     inkscape:label="Capa 1"
     inkscape:groupmode="layer"
     id="layer1"
     style="display:inline"
     transform="translate(-921.18469,-536.56261)"><g
       id="g51"
       inkscape:export-filename="onboarding_welcome.svg"
       inkscape:export-xdpi="96"
       inkscape:export-ydpi="96"><g
         id="g43"
         transform="translate(-20.830927)"><g
           id="g50"><g
             id="g47"
             style="display:inline"><g
               id="g61"><circle
                 cx="965.82812"
                 cy="560.37512"
                 r="23.8125"
                 fill="#007aff"
                 opacity="0.08"
                 id="circle1-23-7"
                 style="stroke-width:0.264583" /><g
                 id="g112-0-9"
                 inkscape:export-filename="RutasMEXTransparent.png"
                 inkscape:export-xdpi="96"
                 inkscape:export-ydpi="96"
                 transform="matrix(0.15433234,0,0,0.15433234,752.2269,729.05944)"
                 style="display:inline;fill:none;stroke-width:1.00046;stroke-dasharray:none"><g
                   id="g60"><circle
                     cx="929.40442"
                     cy="547.28571"
                     r="0.66145831"
                     fill="#00aa00"
                     opacity="0.4"
                     id="circle10-4-4-0"
                     style="display:inline;stroke-width:0.264583"
                     transform="matrix(6.4795234,0,0,6.4795234,-4552.4849,-4743.1854)" /><circle
                     cx="897.91901"
                     cy="551.25446"
                     r="0.66145831"
                     fill="#00aa00"
                     opacity="0.4"
                     id="circle10-4-73-2"
                     style="display:inline;stroke-width:0.264583"
                     transform="matrix(6.4795234,0,0,6.4795234,-4552.4849,-4743.1854)" /><circle
                     cx="898.72894"
                     cy="563.66467"
                     r="0.79374999"
                     fill="#007aff"
                     opacity="0.4"
                     id="circle8-04-11"
                     style="display:inline;stroke-width:0.264583"
                     transform="matrix(6.4795234,0,0,6.4795234,-4552.4849,-4743.1854)" /><circle
                     cx="919.60223"
                     cy="547.00592"
                     r="0.79374999"
                     fill="#007aff"
                     opacity="0.4"
                     id="circle8-04-1-4"
                     style="display:inline;stroke-width:0.264583"
                     transform="matrix(6.4795234,0,0,6.4795234,-4552.4849,-4743.1854)" /><circle
                     cx="926.89087"
                     cy="574.93463"
                     r="0.79374999"
                     fill="#007aff"
                     opacity="0.4"
                     id="circle8-04-8-3"
                     style="display:inline;stroke-width:0.264583"
                     transform="matrix(6.4795234,0,0,6.4795234,-4552.4849,-4743.1854)" /><circle
                     cx="935.88672"
                     cy="565.14502"
                     r="0.79374999"
                     fill="#007aff"
                     opacity="0.4"
                     id="circle8-04-7-7"
                     style="display:inline;stroke-width:0.264583"
                     transform="matrix(6.4795234,0,0,6.4795234,-4552.4849,-4743.1854)" /><circle
                     cx="897.25757"
                     cy="573.34711"
                     r="0.79374999"
                     fill="#007aff"
                     opacity="0.4"
                     id="circle8-04-3-4"
                     style="display:inline;stroke-width:0.264583"
                     transform="matrix(6.4795234,0,0,6.4795234,-4552.4849,-4743.1854)" /><circle
                     cx="932.34924"
                     cy="557.81818"
                     r="0.79374999"
                     fill="#007aff"
                     opacity="0.4"
                     id="circle9-99-4"
                     style="display:inline;stroke-width:0.264583"
                     transform="matrix(6.4795234,0,0,6.4795234,-4552.4849,-4743.1854)" /><circle
                     cx="906.21307"
                     cy="577.87231"
                     r="0.66145831"
                     fill="#00aa00"
                     opacity="0.4"
                     id="circle10-4-3"
                     style="display:inline;stroke-width:0.264583"
                     transform="matrix(6.4795234,0,0,6.4795234,-4552.4849,-4743.1854)" /><circle
                     cx="912.73566"
                     cy="572.95026"
                     r="0.66145831"
                     fill="#00aa00"
                     opacity="0.4"
                     id="circle10-4-63-0"
                     style="display:inline;stroke-width:0.264583"
                     transform="matrix(6.4795234,0,0,6.4795234,-4552.4849,-4743.1854)" /><circle
                     cx="910.93909"
                     cy="544.35034"
                     r="0.66145831"
                     fill="#00aa00"
                     opacity="0.4"
                     id="circle10-4-6-7"
                     style="display:inline;stroke-width:0.264583"
                     transform="matrix(6.4795234,0,0,6.4795234,-4552.4849,-4743.1854)" /><circle
                     cx="913.00024"
                     cy="553.37109"
                     r="0.66145831"
                     fill="#00aa00"
                     opacity="0.4"
                     id="circle10-4-7-9"
                     style="display:inline;stroke-width:0.264583"
                     transform="matrix(6.4795234,0,0,6.4795234,-4552.4849,-4743.1854)" /><circle
                     cx="917.41083"
                     cy="581.08789"
                     r="0.66145831"
                     fill="#00aa00"
                     opacity="0.4"
                     id="circle11-9"
                     style="display:inline;stroke-width:0.264583"
                     transform="matrix(6.4795234,0,0,6.4795234,-4552.4849,-4743.1854)" /><rect
                     style="fill:none;fill-opacity:1;stroke:#ffffff;stroke-width:0;stroke-dasharray:none;stroke-opacity:1"
                     id="rect46-1-7-6-3-6-4-4-9-6"
                     width="270.51822"
                     height="270.51822"
                     x="1248.7749"
                     y="-1228.2529" /><path
                     id="path35-0-9-1-4-2-7-5-5-6"
                     style="fill:#ffffff;stroke:#1c396c;stroke-width:0.857187;stroke-dasharray:none;stroke-opacity:1"
                     d="m 1283.9748,-1050.9799 a 19.755957,19.755957 0 0 0 -19.7555,19.7555 19.755957,19.755957 0 0 0 13.5644,18.761 c -0.033,0.23 -0.05,0.4671 -0.05,0.7065 v 17.31119 c 0,2.69596 2.1693,4.86855 4.8652,4.86855 h 3.4991 c 2.696,0 4.8686,-2.17259 4.8686,-4.86855 v -17.31119 c 0,-0.3258 -0.033,-0.6467 -0.094,-0.9543 a 19.755957,19.755957 0 0 0 12.8611,-18.5132 19.755957,19.755957 0 0 0 -19.7588,-19.7555 z" /><path
                     id="path36-0-5-0-9-1-5-3-3-6"
                     style="fill:#00aa00;stroke-width:1.00047;stroke-dasharray:none"
                     d="m 1283.9748,-1045.964 a 14.740196,14.740196 0 0 0 -14.7396,14.7396 14.740196,14.740196 0 0 0 12.2082,14.522 v 21.89171 c 0,1.00369 0.722,1.81148 1.6207,1.81148 h 2.2836 c 0.8986,0 1.6239,-0.80779 1.6239,-1.81148 v -21.97881 a 14.740196,14.740196 0 0 0 11.7462,-14.4349 14.740196,14.740196 0 0 0 -14.743,-14.7396 z" /><path
                     d="m 1257.1491,-1180.0056 c 1.3261,3.5303 5.7491,28.746 10.7378,35.1601 4.743,6.0981 9.4857,11.3828 9.4857,11.3828 0,0 -6.4647,3.3579 -4.703,7.4233 1.7616,4.0654 4.9249,7.602 12.378,13.5645 7.4532,5.9626 11.0093,2.1784 11.1611,13.5677 0.073,5.4421 17.888,20.8691 20.5982,20.1915 2.7103,-0.6775 6.098,-2.4391 2.9812,-9.4857 -3.1167,-7.0467 -13.3704,-36.1425 -24.7535,-46.0349 -11.3829,-9.8924 -11.2541,-21.1517 -11.2541,-21.1517 0,0 5.1872,-1.7727 11.1497,12.9982 5.9626,14.7708 11.1474,15.4696 16.7034,22.1097 5.556,6.6401 10.3132,7.7303 7.8739,14.7769 -2.4392,7.0466 8.2003,10.0032 15.518,16.2367 7.3176,6.2336 22.164,28.574 22.164,28.574 0,0 -7.0375,-0.046 -9.0615,4.3202 -4.4605,9.6221 17.2994,16.7488 46.0406,31.5159 46.4138,23.8471 38.0764,0.2758 57.9474,14.5066 15.5162,11.11197 12.3918,-0.3437 14.8389,-4.2685 2.5158,-4.035 11.9003,-1.3829 13.8901,-3.6587 9.1479,-10.4627 -18.7601,-15.1427 1.2873,-13.348 17.9776,1.6094 18.9461,-22.6424 21.7919,-29.2825 2.6837,-6.2619 3.7945,-11.2493 3.9124,-11.7972 3e-4,-3e-4 0.013,-0.047 0.013,-0.047 -8.669,1.6054 -17.2909,3.0419 -28.6284,4.0224 -10.326,0.8931 -11.6867,2.4853 -12.1346,11.388 -0.4678,9.2949 -25.5554,17.2273 -35.6351,8.5721 -8.7696,-11.2718 -16.0937,-24.6948 -17.5157,-39.1387 -2.1667,-9.7647 8.7004,-23.9705 2.6944,-28.4944 -2.9364,-2.2118 -8.1371,-3.4234 -12.8684,-5.4198 -4.232,-1.7857 -8.0881,-4.1994 -9.6124,-8.5184 -2.7257,-7.7232 -14.3409,-23.8405 -21.009,-16.1845 -8.0367,9.2273 -12.5757,3.8943 -21.1032,-10.5384 -4.6906,-8.4061 -20.6967,-15.5995 -26.5869,-5.917 -0.8651,1.422 -24.9646,-0.4827 -37.2458,-14.5097 l -31.1981,-2.8298 c 0,0 0.084,0.1892 0.1417,0.3138 z"
                     style="fill:url(#linearGradient84-9-0-1);stroke:#ffffff;stroke-width:0;stroke-dasharray:none"
                     id="path75-5-5-8-4"
                     sodipodi:nodetypes="cscsssssscsssscsssssssccssccsssscsccc" /><g
                     id="g34-6-8-9-6-2-7-9-5"
                     style="fill:#000000;stroke:#1c396c;stroke-width:0.312921;stroke-dasharray:none;stroke-opacity:1"
                     transform="matrix(2.7393091,0,0,2.7393091,1090.4677,-1230.0077)"><path
                       id="path33-1-8-1-9-1-2-1-7"
                       style="fill:#ffffff;stroke:#1c396c;stroke-width:0.312921;stroke-dasharray:none;stroke-opacity:1"
                       d="m 125.86009,10.677731 a 9.1997676,9.1997676 0 0 0 -9.19982,9.199814 9.1997676,9.1997676 0 0 0 6.31548,8.735886 c -0.0154,0.107116 -0.0234,0.216793 -0.0234,0.328309 v 4.227521 A 26.062027,11.278944 0 0 0 99.798031,44.377731 26.062027,11.278944 0 0 0 125.86009,55.656647 26.062027,11.278944 0 0 0 151.92214,44.377731 26.062027,11.278944 0 0 0 129.11455,33.186967 V 28.94174 c 0,-0.151726 -0.0148,-0.299984 -0.043,-0.443208 a 9.1997676,9.1997676 0 0 0 5.9883,-8.620987 9.1997676,9.1997676 0 0 0 -9.19981,-9.199814 z m -2.9077,23.026469 v 1.178372 a 16.091571,6.9639994 0 0 0 -13.18378,6.848909 16.091571,6.9639994 0 0 0 16.09148,6.964184 16.091571,6.9639994 0 0 0 16.09148,-6.964184 16.091571,6.9639994 0 0 0 -12.83702,-6.819525 v -1.18892 a 23.529579,9.6893129 0 0 1 20.2753,9.596308 23.529579,9.6893129 0 0 1 -23.52976,9.689357 23.529579,9.6893129 0 0 1 -23.52939,-9.689357 23.529579,9.6893129 0 0 1 20.62169,-9.615144 z m 0,1.376525 v 1.15219 a 10.033565,3.533834 0 0 0 -7.12598,3.381979 10.033565,3.533834 0 0 0 10.03349,3.534174 10.033565,3.533834 0 0 0 10.03386,-3.534174 10.033565,3.533834 0 0 0 -6.77921,-3.342612 v -1.158594 a 13.709738,5.6455721 0 0 1 10.45503,5.483874 13.709738,5.6455721 0 0 1 -13.70949,5.645862 13.709738,5.6455721 0 0 1 -13.7095,-5.645862 13.709738,5.6455721 0 0 1 10.8018,-5.516837 z m 0,1.456201 v 0.467129 c 0,1.25543 1.01072,2.266143 2.26615,2.266143 h 1.62986 c 1.25543,0 2.26615,-1.010713 2.26615,-2.266143 v -0.414012 a 7.4186263,2.486182 0 0 1 4.16404,2.234687 7.4186263,2.486182 0 0 1 -7.41869,2.486146 7.4186263,2.486182 0 0 1 -7.4187,-2.486146 7.4186263,2.486182 0 0 1 4.51119,-2.287804 z" /></g><g
                     id="g37-1-9-4-2-6-1-2-6"
                     transform="matrix(1.0346,0,0,1.0346,1306.8821,-1210.4206)"
                     style="stroke-width:0.967006;stroke-dasharray:none"><path
                       id="path36-8-0-1-6-0-8-8-7"
                       style="fill:#ff0000;stroke-width:0.967006;stroke-dasharray:none"
                       d="m 124.0628,15.523489 a 18.174004,18.174004 0 0 0 -18.17375,18.174244 18.174004,18.174004 0 0 0 15.04978,17.90344 v 26.990562 c 0,1.2375 0.89186,2.233754 1.99986,2.233754 h 2.81526 c 1.108,0 2.00035,-0.996254 2.00035,-2.233754 V 51.492952 A 18.174004,18.174004 0 0 0 142.23704,33.697733 18.174004,18.174004 0 0 0 124.0628,15.523489 Z" /></g></g></g></g></g></g></g></g></g></svg>
