<?xml version="1.0" encoding="UTF-8" standalone="no"?>
<!-- Created with Inkscape (http://www.inkscape.org/) -->

<svg
   width="47.625mm"
   height="47.625mm"
   viewBox="0 0 47.625 47.625"
   version="1.1"
   id="svg1"
   xml:space="preserve"
   inkscape:version="1.4.3 (0d15f75, 2025-12-25)"
   sodipodi:docname="RutasMEX.svg"
   inkscape:export-filename="RutasMEXTinted.png"
   inkscape:export-xdpi="96"
   inkscape:export-ydpi="96"
   xmlns:inkscape="http://www.inkscape.org/namespaces/inkscape"
   xmlns:sodipodi="http://sodipodi.sourceforge.net/DTD/sodipodi-0.dtd"
   xmlns="http://www.w3.org/2000/svg"
   xmlns:svg="http://www.w3.org/2000/svg"><sodipodi:namedview
     id="namedview1"
     pagecolor="#ffffff"
     bordercolor="#000000"
     borderopacity="0.25"
     inkscape:showpageshadow="2"
     inkscape:pageopacity="0.0"
     inkscape:pagecheckerboard="0"
     inkscape:deskcolor="#d1d1d1"
     inkscape:document-units="mm"
     showguides="false"
     inkscape:zoom="1.9234005"
     inkscape:cx="4828.1677"
     inkscape:cy="507.95454"
     inkscape:window-width="1512"
     inkscape:window-height="921"
     inkscape:window-x="0"
     inkscape:window-y="33"
     inkscape:window-maximized="0"
     inkscape:current-layer="layer1"><inkscape:page
       x="0"
       y="0"
       width="47.625"
       height="47.625"
       id="page2"
       margin="0"
       bleed="0" /></sodipodi:namedview><defs
     id="defs1"><linearGradient
       id="swatch52"
       inkscape:swatch="solid"><stop
         style="stop-color:#ffffff;stop-opacity:1;"
         offset="0"
         id="stop52" /></linearGradient></defs><g
     inkscape:label="Capa 1"
     inkscape:groupmode="layer"
     id="layer1"
     style="display:inline"
     transform="translate(-1011.6261,-532.14325)"><g
       style="fill:none"
       id="g62"
       transform="matrix(0.26458333,0,0,0.26458333,718.68437,558.71986)"><g
         style="fill:none"
         id="g65"
         transform="translate(1097.1814,-110.44711)"><g
           id="g66"><circle
             cx="100"
             cy="100"
             r="90"
             fill="#ff9500"
             opacity="0.1"
             id="circle1-88" /><rect
             x="50"
             y="50"
             width="100"
             height="100"
             rx="10"
             fill="#f5f5f5"
             id="rect1-9" /><line
             x1="50"
             y1="75"
             x2="150"
             y2="75"
             stroke="#e0e0e0"
             stroke-width="1"
             id="line1" /><line
             x1="50"
             y1="100"
             x2="150"
             y2="100"
             stroke="#e0e0e0"
             stroke-width="1"
             id="line2-9" /><line
             x1="50"
             y1="125"
             x2="150"
             y2="125"
             stroke="#e0e0e0"
             stroke-width="1"
             id="line3" /><line
             x1="75"
             y1="50"
             x2="75"
             y2="150"
             stroke="#e0e0e0"
             stroke-width="1"
             id="line4" /><line
             x1="100"
             y1="50"
             x2="100"
             y2="150"
             stroke="#e0e0e0"
             stroke-width="1"
             id="line5" /><line
             x1="125"
             y1="50"
             x2="125"
             y2="150"
             stroke="#e0e0e0"
             stroke-width="1"
             id="line6" /><path
             d="m 60,65 q 20,10 40,35 20,25 40,35"
             stroke="#007aff"
             stroke-width="3"
             fill="none"
             opacity="0.3"
             stroke-linecap="round"
             id="path6-3" /><circle
             cx="130"
             cy="130"
             r="28"
             fill="#ff3b30"
             opacity="0.08"
             id="circle6-7" /><circle
             cx="130"
             cy="130"
             r="18"
             fill="#ff3b30"
             opacity="0.12"
             id="circle7-2" /><circle
             cx="130"
             cy="130"
             r="10"
             fill="#ff3b30"
             opacity="0.15"
             id="circle8-3" /><g
             transform="translate(130,106.28124)"
             id="g10"><path
               d="M 0,0 C -5,0 -9,4 -9,9 -9,14 0,24 0,24 0,24 9,14 9,9 9,4 5,0 0,0 Z"
               fill="#ff3b30"
               id="path8-83" /><path
               d="m 0,0 c -5,0 -9,4 -9,9 0,5 9,15 9,15 z"
               fill="#000000"
               opacity="0.15"
               id="path9-5" /><circle
               cx="0"
               cy="8"
               r="3.5"
               fill="#ffffff"
               id="circle9-1" /><circle
               cx="0"
               cy="8"
               r="1.5"
               fill="#ff3b30"
               id="circle10-5" /></g><g
             transform="translate(68.828125,56.828125)"
             id="g12"><path
               d="M 0,0 C -5,0 -9,4 -9,9 -9,14 0,24 0,24 0,24 9,14 9,9 9,4 5,0 0,0 Z"
               fill="#34c759"
               id="path10-4" /><path
               d="m 0,0 c -5,0 -9,4 -9,9 0,5 9,15 9,15 z"
               fill="#000000"
               opacity="0.15"
               id="path11-2" /><circle
               cx="0"
               cy="8"
               r="3.5"
               fill="#ffffff"
               id="circle11-2" /><circle
               cx="0"
               cy="8"
               r="1.5"
               fill="#34c759"
               id="circle12-9" /></g><g
             transform="translate(100,100)"
             id="g17"><circle
               cx="0"
               cy="0"
               r="12"
               fill="#007aff"
               opacity="0.2"
               id="circle13-1" /><circle
               cx="0"
               cy="0"
               r="8"
               fill="#007aff"
               opacity="0.3"
               id="circle14-5" /><circle
               cx="0"
               cy="0"
               r="5"
               fill="#007aff"
               id="circle15-8" /><circle
               cx="0"
               cy="0"
               r="4"
               fill="#ffffff"
               id="circle16-8" /><circle
               cx="0"
               cy="0"
               r="2.5"
               fill="#007aff"
               id="circle17-0" /></g><line
             x1="70"
             y1="82"
             x2="130"
             y2="130"
             stroke="#007aff"
             stroke-width="1.5"
             stroke-dasharray="3, 3"
             opacity="0.4"
             id="line20" /><rect
             x="50"
             y="50"
             width="100"
             height="100"
             rx="10"
             stroke="#d0d0d0"
             stroke-width="1.5"
             fill="none"
             id="rect20" /><g
             transform="matrix(2.2695313,0,0,2.2695313,147.61719,52.382813)"
             id="g20"><circle
               cx="0"
               cy="0"
               r="10"
               fill="#34c759"
               id="circle18-4" /><circle
               cx="0"
               cy="0"
               r="8.5"
               fill="#ffffff"
               id="circle19" /><circle
               cx="0"
               cy="0"
               r="7"
               fill="#34c759"
               id="circle20" /><path
               d="m -3,0 1.5,2 5,-5"
               stroke="#ffffff"
               stroke-width="2"
               stroke-linecap="round"
               stroke-linejoin="round"
               fill="none"
               id="path20" /></g></g></g></g></g></svg>
